<svg width="198" height="58" viewBox="0 0 198 58" fill="none" xmlns="http://www.w3.org/2000/svg">
<path d="M13.125 37L12.9869 36.994C11.6085 36.8781 11.8534 35.0186 13.125 35.0186V37ZM37.9024 27.0879V30.1761H24.5003L25.3537 32.5396C25.8915 34.028 27.2992 35.0186 28.875 35.0186V37H13.125V35.0186H13.3161C15.0398 35.0186 16.5792 33.9345 17.1675 32.3063L17.9378 30.1761H4.09756V27.0879H37.9024ZM28.875 35.0186C30.1465 35.0186 30.1862 36.8779 28.994 36.994L28.875 37V35.0186ZM38.9268 26.0585V6.11765C38.9268 5.54912 38.4682 5.08824 37.9024 5.08824H4.09756C3.5318 5.08824 3.07317 5.54912 3.07317 6.11765V26.0585C3.07318 26.627 3.53181 27.0879 4.09756 27.0879V30.1761L3.88648 30.1711C1.79146 30.0643 0.111314 28.3759 0.00500191 26.2706L0 26.0585V6.11765C0 3.91467 1.72155 2.11541 3.88648 2.00503L4.09756 2H37.9024L38.1135 2.00503C40.2785 2.11541 42 3.91467 42 6.11765V26.0585L41.995 26.2706C41.8887 28.3759 40.2085 30.0643 38.1135 30.1711L37.9024 30.1761V27.0879C38.4682 27.0879 38.9268 26.627 38.9268 26.0585Z" fill="#464646"/>
<path d="M12.2017 56L10.2131 48.7273H11.108L12.6278 54.6506H12.6989L14.2472 48.7273H15.2415L16.7898 54.6506H16.8608L18.3807 48.7273H19.2756L17.2869 56H16.3778L14.7727 50.2045H14.7159L13.1108 56H12.2017ZM22.0384 56.1136C21.5128 56.1136 21.0594 55.9976 20.6783 55.7656C20.2995 55.5312 20.0071 55.2045 19.8011 54.7855C19.5975 54.3641 19.4957 53.8741 19.4957 53.3153C19.4957 52.7566 19.5975 52.2642 19.8011 51.8381C20.0071 51.4096 20.2936 51.0758 20.6605 50.8366C21.0298 50.5952 21.4607 50.4744 21.9531 50.4744C22.2372 50.4744 22.5178 50.5218 22.7947 50.6165C23.0717 50.7112 23.3239 50.8651 23.5511 51.0781C23.7784 51.2888 23.9595 51.5682 24.0945 51.9162C24.2294 52.2642 24.2969 52.6927 24.2969 53.2017V53.5568H20.0923V52.8324H23.4446C23.4446 52.5246 23.383 52.25 23.2599 52.0085C23.1392 51.767 22.9664 51.5765 22.7415 51.4368C22.5189 51.2971 22.2562 51.2273 21.9531 51.2273C21.6193 51.2273 21.3305 51.3101 21.0866 51.4759C20.8452 51.6392 20.6593 51.8523 20.5291 52.1151C20.3989 52.3778 20.3338 52.6596 20.3338 52.9602V53.4432C20.3338 53.8551 20.4048 54.2043 20.5469 54.4908C20.6913 54.7749 20.8913 54.9915 21.147 55.1406C21.4027 55.2874 21.6998 55.3608 22.0384 55.3608C22.2585 55.3608 22.4574 55.33 22.6349 55.2685C22.8149 55.2045 22.9699 55.1098 23.1001 54.9844C23.2304 54.8565 23.331 54.6979 23.402 54.5085L24.2116 54.7358C24.1264 55.0104 23.9832 55.2519 23.782 55.4602C23.5807 55.6662 23.3321 55.8272 23.0362 55.9432C22.7403 56.0568 22.4077 56.1136 22.0384 56.1136ZM25.6854 56V48.7273H26.5234V51.4119H26.5945C26.656 51.3172 26.7412 51.1965 26.8501 51.0497C26.9614 50.9006 27.12 50.768 27.326 50.652C27.5343 50.5336 27.8161 50.4744 28.1712 50.4744C28.6304 50.4744 29.0353 50.5893 29.3857 50.8189C29.736 51.0485 30.0095 51.3741 30.206 51.7955C30.4025 52.2169 30.5007 52.714 30.5007 53.2869C30.5007 53.8646 30.4025 54.3653 30.206 54.7891C30.0095 55.2105 29.7372 55.5372 29.3892 55.7692C29.0412 55.9988 28.6399 56.1136 28.1854 56.1136C27.835 56.1136 27.5545 56.0556 27.3438 55.9396C27.133 55.8213 26.9709 55.6875 26.8572 55.5384C26.7436 55.3868 26.656 55.2614 26.5945 55.1619H26.495V56H25.6854ZM26.5092 53.2727C26.5092 53.6847 26.5696 54.0481 26.6903 54.3629C26.8111 54.6754 26.9875 54.9205 27.2195 55.098C27.4515 55.2732 27.7356 55.3608 28.0717 55.3608C28.4221 55.3608 28.7145 55.2685 28.9489 55.0838C29.1856 54.8968 29.3632 54.6458 29.4815 54.331C29.6023 54.0137 29.6626 53.661 29.6626 53.2727C29.6626 52.8892 29.6035 52.5436 29.4851 52.2358C29.3691 51.9257 29.1927 51.6806 28.956 51.5007C28.7216 51.3184 28.4268 51.2273 28.0717 51.2273C27.7308 51.2273 27.4444 51.3137 27.2124 51.4865C26.9804 51.657 26.8052 51.8961 26.6868 52.2038C26.5684 52.5092 26.5092 52.8655 26.5092 53.2727Z" fill="#64696D"/>
<path d="M91.5084 23.689C92.8528 23.689 93.9427 24.7789 93.9427 26.1233V36.5658C93.9427 37.9102 92.8528 38.9999 91.5084 38.9999C90.1641 38.9999 89.0742 37.9102 89.0742 36.5658V26.1233C89.0742 24.779 90.1641 23.6891 91.5084 23.6891V23.689Z" fill="#464646"/>
<path d="M85.9516 11.134C85.9435 11.2263 85.9365 11.3197 85.9365 11.414V27.2354C85.9365 28.9369 87.2833 30.3076 88.9553 30.3076H105.044C106.717 30.3076 108.063 28.9367 108.063 27.2354V11.414C108.063 11.3197 108.06 11.226 108.052 11.134H85.9516Z" fill="#464646"/>
<path d="M102.491 23.6888C103.835 23.6888 104.925 24.7787 104.925 26.1231V36.5656C104.925 37.91 103.835 38.9997 102.491 38.9997C101.147 38.9997 100.057 37.91 100.057 36.5656V26.1231C100.057 24.7788 101.147 23.6889 102.491 23.6889V23.6888ZM82.0251 12.542C83.3694 12.542 84.4593 13.6319 84.4593 14.9763V25.4188C84.4593 26.7632 83.3694 27.8531 82.0251 27.8531C80.6807 27.8531 79.5908 26.7632 79.5908 25.419V14.9765C79.5906 13.6321 80.6805 12.542 82.0251 12.542ZM111.975 12.542C113.319 12.542 114.409 13.6319 114.409 14.9763V25.4188C114.409 26.7632 113.319 27.8531 111.975 27.8531C110.63 27.8531 109.54 26.7632 109.54 25.419V14.9765C109.54 13.6321 110.63 12.542 111.975 12.542ZM86.0225 10.0947C86.0902 5.23499 90.3318 1.25046 95.7764 0.725342H98.2229C103.668 1.25063 107.909 5.23533 107.977 10.0947H86.0225Z" fill="#464646"/>
<path d="M86.7405 0.0343991C86.8632 -0.0364004 87.02 0.0056053 87.0908 0.128233L89.6586 4.576C89.7294 4.69864 89.6874 4.85545 89.5647 4.92625C89.4421 4.99705 89.2853 4.95504 89.2145 4.83242L86.6467 0.384647C86.5759 0.262013 86.6179 0.105204 86.7405 0.0343991ZM106.908 0.128233C106.979 0.00559755 107.136 -0.0364063 107.259 0.0343991C107.381 0.105209 107.423 0.262017 107.352 0.384647L104.784 4.83242C104.714 4.95505 104.557 4.99706 104.434 4.92625C104.312 4.85545 104.27 4.69864 104.34 4.576L106.908 0.128233Z" fill="#464646"/>
<path d="M93.7297 5.73959C93.7317 6.41889 93.1695 6.97118 92.4738 6.97306C91.7785 6.97477 91.213 6.42572 91.2109 5.74642V5.73959C91.2091 5.06011 91.7713 4.50799 92.4668 4.50611C93.1622 4.50423 93.7276 5.0531 93.7297 5.73275V5.73959ZM103.131 5.73959C103.133 6.41889 102.57 6.97118 101.875 6.97306C101.179 6.97477 100.614 6.42572 100.612 5.74642V5.73959C100.61 5.06011 101.172 4.50799 101.868 4.50611C102.563 4.50423 103.128 5.0531 103.131 5.73275V5.73959Z" fill="black"/>
<path d="M79.679 56H78.7557L81.4261 48.7273H82.3352L85.0057 56H84.0824L81.9091 49.8778H81.8523L79.679 56ZM80.0199 53.1591H83.7415V53.9403H80.0199V53.1591ZM86.8629 52.7188V56H86.0249V50.5455H86.8345V51.3977H86.9055C87.0334 51.1207 87.2275 50.8982 87.4879 50.7301C87.7483 50.5597 88.0845 50.4744 88.4964 50.4744C88.8658 50.4744 89.1889 50.5502 89.4659 50.7017C89.7429 50.8509 89.9583 51.0781 90.1122 51.3835C90.2661 51.6866 90.343 52.0701 90.343 52.5341V56H89.505V52.5909C89.505 52.1624 89.3937 51.8286 89.1712 51.5895C88.9486 51.348 88.6432 51.2273 88.255 51.2273C87.9875 51.2273 87.7483 51.2853 87.5376 51.4013C87.3293 51.5173 87.1648 51.6866 87.044 51.9091C86.9233 52.1316 86.8629 52.4015 86.8629 52.7188ZM93.9341 56.1136C93.4796 56.1136 93.0783 55.9988 92.7303 55.7692C92.3823 55.5372 92.11 55.2105 91.9135 54.7891C91.717 54.3653 91.6188 53.8646 91.6188 53.2869C91.6188 52.714 91.717 52.2169 91.9135 51.7955C92.11 51.3741 92.3835 51.0485 92.7338 50.8189C93.0842 50.5893 93.4891 50.4744 93.9483 50.4744C94.3034 50.4744 94.584 50.5336 94.79 50.652C94.9983 50.768 95.1569 50.9006 95.2658 51.0497C95.3771 51.1965 95.4635 51.3172 95.525 51.4119H95.5961V48.7273H96.4341V56H95.6245V55.1619H95.525C95.4635 55.2614 95.3759 55.3868 95.2623 55.5384C95.1486 55.6875 94.9864 55.8213 94.7757 55.9396C94.565 56.0556 94.2845 56.1136 93.9341 56.1136ZM94.0478 55.3608C94.3839 55.3608 94.668 55.2732 94.9 55.098C95.132 54.9205 95.3084 54.6754 95.4292 54.3629C95.5499 54.0481 95.6103 53.6847 95.6103 53.2727C95.6103 52.8655 95.5511 52.5092 95.4327 52.2038C95.3143 51.8961 95.1391 51.657 94.9071 51.4865C94.6751 51.3137 94.3887 51.2273 94.0478 51.2273C93.6926 51.2273 93.3967 51.3184 93.16 51.5007C92.9256 51.6806 92.7492 51.9257 92.6309 52.2358C92.5149 52.5436 92.4569 52.8892 92.4569 53.2727C92.4569 53.661 92.516 54.0137 92.6344 54.331C92.7551 54.6458 92.9327 54.8968 93.1671 55.0838C93.4038 55.2685 93.6974 55.3608 94.0478 55.3608ZM98.0854 56V50.5455H98.8951V51.3693H98.9519C99.0513 51.0994 99.2312 50.8804 99.4917 50.7124C99.7521 50.5443 100.046 50.4602 100.372 50.4602C100.434 50.4602 100.511 50.4614 100.603 50.4638C100.695 50.4661 100.765 50.4697 100.813 50.4744V51.3267C100.784 51.3196 100.719 51.3089 100.617 51.2947C100.518 51.2782 100.413 51.2699 100.301 51.2699C100.036 51.2699 99.7994 51.3255 99.5911 51.4368C99.3851 51.5457 99.2218 51.6972 99.101 51.8913C98.9827 52.0831 98.9235 52.3021 98.9235 52.5483V56H98.0854ZM103.856 56.1136C103.364 56.1136 102.932 55.9964 102.56 55.7621C102.191 55.5277 101.902 55.1998 101.693 54.7784C101.487 54.357 101.384 53.8646 101.384 53.3011C101.384 52.733 101.487 52.237 101.693 51.8132C101.902 51.3894 102.191 51.0604 102.56 50.826C102.932 50.5916 103.364 50.4744 103.856 50.4744C104.348 50.4744 104.779 50.5916 105.149 50.826C105.52 51.0604 105.809 51.3894 106.015 51.8132C106.223 52.237 106.328 52.733 106.328 53.3011C106.328 53.8646 106.223 54.357 106.015 54.7784C105.809 55.1998 105.52 55.5277 105.149 55.7621C104.779 55.9964 104.348 56.1136 103.856 56.1136ZM103.856 55.3608C104.23 55.3608 104.538 55.2649 104.779 55.0732C105.021 54.8814 105.2 54.6293 105.316 54.3168C105.432 54.0043 105.49 53.6657 105.49 53.3011C105.49 52.9366 105.432 52.5968 105.316 52.282C105.2 51.9671 105.021 51.7126 104.779 51.5185C104.538 51.3243 104.23 51.2273 103.856 51.2273C103.482 51.2273 103.174 51.3243 102.933 51.5185C102.691 51.7126 102.512 51.9671 102.396 52.282C102.28 52.5968 102.222 52.9366 102.222 53.3011C102.222 53.6657 102.28 54.0043 102.396 54.3168C102.512 54.6293 102.691 54.8814 102.933 55.0732C103.174 55.2649 103.482 55.3608 103.856 55.3608ZM107.607 56V50.5455H108.445V56H107.607ZM108.033 49.6364C107.87 49.6364 107.729 49.5807 107.61 49.4695C107.494 49.3582 107.436 49.2244 107.436 49.0682C107.436 48.9119 107.494 48.7782 107.61 48.6669C107.729 48.5556 107.87 48.5 108.033 48.5C108.196 48.5 108.336 48.5556 108.452 48.6669C108.57 48.7782 108.63 48.9119 108.63 49.0682C108.63 49.2244 108.57 49.3582 108.452 49.4695C108.336 49.5807 108.196 49.6364 108.033 49.6364ZM112.04 56.1136C111.585 56.1136 111.184 55.9988 110.836 55.7692C110.488 55.5372 110.215 55.2105 110.019 54.7891C109.823 54.3653 109.724 53.8646 109.724 53.2869C109.724 52.714 109.823 52.2169 110.019 51.7955C110.215 51.3741 110.489 51.0485 110.839 50.8189C111.19 50.5893 111.595 50.4744 112.054 50.4744C112.409 50.4744 112.689 50.5336 112.895 50.652C113.104 50.768 113.262 50.9006 113.371 51.0497C113.483 51.1965 113.569 51.3172 113.631 51.4119H113.702V48.7273H114.54V56H113.73V55.1619H113.631C113.569 55.2614 113.481 55.3868 113.368 55.5384C113.254 55.6875 113.092 55.8213 112.881 55.9396C112.671 56.0556 112.39 56.1136 112.04 56.1136ZM112.153 55.3608C112.489 55.3608 112.773 55.2732 113.006 55.098C113.238 54.9205 113.414 54.6754 113.535 54.3629C113.655 54.0481 113.716 53.6847 113.716 53.2727C113.716 52.8655 113.657 52.5092 113.538 52.2038C113.42 51.8961 113.245 51.657 113.013 51.4865C112.781 51.3137 112.494 51.2273 112.153 51.2273C111.798 51.2273 111.502 51.3184 111.265 51.5007C111.031 51.6806 110.855 51.9257 110.736 52.2358C110.62 52.5436 110.562 52.8892 110.562 53.2727C110.562 53.661 110.622 54.0137 110.74 54.331C110.861 54.6458 111.038 54.8968 111.273 55.0838C111.509 55.2685 111.803 55.3608 112.153 55.3608Z" fill="#64696D"/>
<path d="M186.313 0C186.401 0 186.49 0 186.583 0C186.8 2.67984 185.777 4.68221 184.534 6.13226C183.314 7.5723 181.644 8.96895 178.943 8.75704C178.762 6.11558 179.787 4.26171 181.028 2.815C182.18 1.46674 184.291 0.266983 186.313 0Z" fill="#464646"/>
<path d="M194.491 27.893C194.491 27.9197 194.491 27.9431 194.491 27.9681C193.732 30.2675 192.649 32.2382 191.327 34.067C190.121 35.7273 188.642 37.9616 186.002 37.9616C183.721 37.9616 182.206 36.4949 179.868 36.4548C177.396 36.4148 176.036 37.6813 173.775 38C173.516 38 173.257 38 173.004 38C171.343 37.7597 170.003 36.4448 169.027 35.2601C166.149 31.7593 163.925 27.2372 163.511 21.4504C163.511 20.883 163.511 20.3174 163.511 19.75C163.686 15.6085 165.698 12.2411 168.373 10.6092C169.785 9.74152 171.725 9.00231 173.886 9.3327C174.812 9.4762 175.759 9.79325 176.588 10.107C177.374 10.409 178.357 10.9446 179.288 10.9162C179.919 10.8979 180.546 10.5692 181.182 10.3372C183.044 9.66476 184.869 8.89385 187.276 9.25594C190.167 9.69313 192.22 10.978 193.488 12.9603C191.042 14.5172 189.108 16.8633 189.438 20.8697C189.732 24.509 191.848 26.6382 194.491 27.893Z" fill="#464646"/>
<path d="M167.96 38.2366V39H155.04V38.2366H167.96ZM170.24 9.99107C170.24 8.72624 169.219 7.70089 167.96 7.70089H155.04C153.781 7.70089 152.76 8.72624 152.76 9.99107H170.24ZM152.76 33.2746H170.24V10.7545H152.76V33.2746ZM164.92 8.27344C165.13 8.27344 165.3 8.44433 165.3 8.65513C165.3 8.86594 165.13 9.03683 164.92 9.03683H158.08C157.87 9.03683 157.7 8.86594 157.7 8.65513C157.7 8.44433 157.87 8.27344 158.08 8.27344H164.92ZM171 35.9464C171 37.6329 169.639 39 167.96 39V38.2366C169.219 38.2366 170.24 37.2113 170.24 35.9464V34.0379H152.76V35.9464C152.76 37.2113 153.781 38.2366 155.04 38.2366V39C153.361 39 152 37.6329 152 35.9464V9.99107C152 8.30463 153.361 6.9375 155.04 6.9375H167.96C169.639 6.9375 171 8.30463 171 9.99107V35.9464Z" fill="#464646"/>
<path d="M162.688 36.625C162.688 37.2808 162.156 37.8125 161.5 37.8125C160.844 37.8125 160.312 37.2808 160.312 36.625C160.312 35.9692 160.844 35.4375 161.5 35.4375C162.156 35.4375 162.688 35.9692 162.688 36.625Z" fill="#464646"/>
<path d="M167.583 56V50.5455H168.422V56H167.583ZM168.01 49.6364C167.846 49.6364 167.705 49.5807 167.587 49.4695C167.471 49.3582 167.413 49.2244 167.413 49.0682C167.413 48.9119 167.471 48.7782 167.587 48.6669C167.705 48.5556 167.846 48.5 168.01 48.5C168.173 48.5 168.313 48.5556 168.429 48.6669C168.547 48.7782 168.606 48.9119 168.606 49.0682C168.606 49.2244 168.547 49.3582 168.429 49.4695C168.313 49.5807 168.173 49.6364 168.01 49.6364ZM176.206 52.3636C176.206 53.1307 176.068 53.7936 175.791 54.3523C175.514 54.911 175.134 55.3419 174.651 55.6449C174.168 55.9479 173.617 56.0994 172.996 56.0994C172.376 56.0994 171.824 55.9479 171.341 55.6449C170.858 55.3419 170.479 54.911 170.202 54.3523C169.925 53.7936 169.786 53.1307 169.786 52.3636C169.786 51.5966 169.925 50.9337 170.202 50.375C170.479 49.8163 170.858 49.3854 171.341 49.0824C171.824 48.7794 172.376 48.6278 172.996 48.6278C173.617 48.6278 174.168 48.7794 174.651 49.0824C175.134 49.3854 175.514 49.8163 175.791 50.375C176.068 50.9337 176.206 51.5966 176.206 52.3636ZM175.354 52.3636C175.354 51.7339 175.249 51.2024 175.038 50.7692C174.83 50.3359 174.547 50.008 174.189 49.7855C173.834 49.563 173.437 49.4517 172.996 49.4517C172.556 49.4517 172.157 49.563 171.8 49.7855C171.444 50.008 171.162 50.3359 170.951 50.7692C170.742 51.2024 170.638 51.7339 170.638 52.3636C170.638 52.9934 170.742 53.5249 170.951 53.9581C171.162 54.3913 171.444 54.7192 171.8 54.9418C172.157 55.1643 172.556 55.2756 172.996 55.2756C173.437 55.2756 173.834 55.1643 174.189 54.9418C174.547 54.7192 174.83 54.3913 175.038 53.9581C175.249 53.5249 175.354 52.9934 175.354 52.3636ZM181.665 50.5455C181.622 50.1856 181.449 49.9062 181.146 49.7074C180.843 49.5085 180.471 49.4091 180.031 49.4091C179.709 49.4091 179.427 49.4612 179.186 49.5653C178.947 49.6695 178.76 49.8127 178.625 49.995C178.492 50.1773 178.426 50.3845 178.426 50.6165C178.426 50.8106 178.472 50.9775 178.564 51.1172C178.659 51.2545 178.78 51.3693 178.927 51.4616C179.073 51.5516 179.227 51.6262 179.388 51.6854C179.549 51.7422 179.697 51.7884 179.832 51.8239L180.571 52.0227C180.76 52.0724 180.971 52.1411 181.203 52.2287C181.437 52.3163 181.661 52.4358 181.874 52.5874C182.09 52.7365 182.267 52.9283 182.407 53.1626C182.546 53.397 182.616 53.6847 182.616 54.0256C182.616 54.4186 182.513 54.7737 182.307 55.0909C182.104 55.4081 181.805 55.6603 181.412 55.8473C181.022 56.0343 180.547 56.1278 179.988 56.1278C179.468 56.1278 179.017 56.0438 178.635 55.8757C178.257 55.7076 177.958 55.4732 177.741 55.1726C177.525 54.8719 177.403 54.5227 177.375 54.125H178.284C178.308 54.3996 178.4 54.6269 178.561 54.8068C178.724 54.9844 178.93 55.117 179.179 55.2045C179.43 55.2898 179.7 55.3324 179.988 55.3324C180.325 55.3324 180.626 55.2779 180.894 55.169C181.162 55.0578 181.373 54.9039 181.53 54.7074C181.686 54.5085 181.764 54.2765 181.764 54.0114C181.764 53.7699 181.697 53.5734 181.562 53.4219C181.427 53.2704 181.249 53.1473 181.029 53.0526C180.809 52.9579 180.571 52.875 180.315 52.804L179.42 52.5483C178.852 52.3849 178.402 52.1518 178.071 51.8487C177.739 51.5457 177.574 51.1491 177.574 50.6591C177.574 50.2519 177.684 49.8968 177.904 49.5938C178.126 49.2884 178.425 49.0516 178.799 48.8835C179.175 48.7131 179.595 48.6278 180.059 48.6278C180.528 48.6278 180.945 48.7119 181.309 48.88C181.674 49.0457 181.963 49.273 182.176 49.5618C182.391 49.8506 182.505 50.1785 182.517 50.5455H181.665Z" fill="#64696D"/>
</svg>
