<svg width="17" height="17" viewBox="0 0 17 17" fill="none" xmlns="http://www.w3.org/2000/svg">
<path fill-rule="evenodd" clip-rule="evenodd" d="M8.47467 0.17334C3.7884 0.17334 0 3.98967 0 8.71098C0 12.485 2.42736 15.6796 5.79474 16.8103C6.21575 16.8953 6.36997 16.6266 6.36997 16.4005C6.36997 16.2026 6.35609 15.5242 6.35609 14.8173C3.99864 15.3262 3.50772 13.7995 3.50772 13.7995C3.12887 12.8101 2.56752 12.5558 2.56752 12.5558C1.79593 12.0328 2.62372 12.0328 2.62372 12.0328C3.47962 12.0893 3.92873 12.9091 3.92873 12.9091C4.68628 14.2094 5.90698 13.842 6.39807 13.6158C6.46815 13.0645 6.6928 12.6829 6.93132 12.4709C5.05108 12.273 3.07284 11.538 3.07284 8.25858C3.07284 7.32566 3.40937 6.56239 3.94261 5.96878C3.85848 5.7568 3.56376 4.88026 4.02692 3.70709C4.02692 3.70709 4.74248 3.48088 6.35592 4.58345C7.04669 4.39657 7.75907 4.3015 8.47467 4.3007C9.19024 4.3007 9.91967 4.39975 10.5933 4.58345C12.2069 3.48088 12.9224 3.70709 12.9224 3.70709C13.3856 4.88026 13.0907 5.7568 13.0066 5.96878C13.5539 6.56239 13.8765 7.32566 13.8765 8.25858C13.8765 11.538 11.8983 12.2588 10.004 12.4709C10.3128 12.7395 10.5792 13.2483 10.5792 14.054C10.5792 15.1989 10.5653 16.1178 10.5653 16.4004C10.5653 16.6266 10.7197 16.8953 11.1406 16.8104C14.5079 15.6794 16.9353 12.485 16.9353 8.71098C16.9492 3.98967 13.1469 0.17334 8.47467 0.17334Z" fill="white"/>
</svg>
