<svg width="62" height="62" viewBox="0 0 62 62" fill="none" xmlns="http://www.w3.org/2000/svg">
<path d="M18.1611 0.217264C14.8627 0.372884 12.6102 0.899264 10.6411 1.67302C8.60317 2.46724 6.87585 3.53302 5.15721 5.25786C3.43857 6.9827 2.38023 8.71127 1.59159 10.7523C0.82837 12.7258 0.31129 14.9801 0.16559 18.2803C0.0198903 21.5806 -0.0123497 22.6414 0.00377027 31.0598C0.0198903 39.4781 0.0570903 40.5334 0.21705 43.8405C0.37453 47.1382 0.89905 49.3901 1.67281 51.3598C2.46827 53.3978 3.53281 55.1245 5.25827 56.8437C6.98373 58.563 8.71105 59.6188 10.757 60.4087C12.7287 61.1707 14.9836 61.6903 18.2832 61.8347C21.5829 61.9792 22.6449 62.0127 31.0608 61.9965C39.4767 61.9804 40.5363 61.9432 43.8427 61.7864C47.1492 61.6295 49.3892 61.1013 51.3596 60.3312C53.3975 59.5339 55.1255 58.4712 56.8435 56.7451C58.5615 55.0191 59.6192 53.2893 60.4073 51.247C61.1711 49.2754 61.69 47.0204 61.8333 43.7233C61.9777 40.4143 62.0118 39.3579 61.9957 30.9407C61.9796 22.5236 61.9418 21.4684 61.7849 18.1625C61.6281 14.8567 61.1029 12.6117 60.3298 10.6407C59.5331 8.60277 58.4698 6.8773 56.7449 5.1568C55.0201 3.4363 53.289 2.3792 51.2474 1.59304C49.2745 0.829824 47.0208 0.309644 43.7212 0.167044C40.4216 0.0244444 39.3595 -0.0121356 30.9405 0.00398436C22.5216 0.0201044 21.4676 0.0560644 18.1611 0.217264ZM18.5232 56.2578C15.5007 56.1264 13.8595 55.6242 12.7658 55.2038C11.3175 54.6458 10.2859 53.9713 9.19589 52.8918C8.10593 51.8124 7.43633 50.777 6.87089 49.3318C6.44619 48.2381 5.93469 46.5989 5.79333 43.5763C5.63957 40.3096 5.60733 39.3287 5.58935 31.0523C5.57137 22.776 5.60299 21.7964 5.74621 18.5283C5.87517 15.5083 6.38047 13.8653 6.80021 12.7723C7.35821 11.3221 8.03029 10.2923 9.11219 9.20292C10.1941 8.11358 11.2264 7.44274 12.6728 6.8773C13.7653 6.45074 15.4046 5.94358 18.4258 5.79974C21.6951 5.64474 22.6747 5.61374 30.9498 5.59576C39.225 5.57778 40.2071 5.60878 43.4775 5.75262C46.4976 5.88406 48.1412 6.3844 49.233 6.80662C50.6819 7.36462 51.713 8.03485 52.8023 9.11861C53.8917 10.2024 54.5631 11.2309 55.1286 12.6805C55.5558 13.7698 56.0629 15.4085 56.2055 18.4316C56.3611 21.7009 56.3965 22.6811 56.4114 30.9556C56.4262 39.2301 56.3971 40.2128 56.2539 43.4796C56.1218 46.5021 55.6209 48.1439 55.1999 49.2388C54.6419 50.6865 53.9692 51.7188 52.8867 52.8075C51.8041 53.8962 50.7731 54.5671 49.326 55.1325C48.2348 55.5585 46.5937 56.0669 43.5749 56.2107C40.3056 56.3645 39.326 56.3967 31.0478 56.4147C22.7696 56.4327 21.7931 56.3992 18.5238 56.2578M43.795 14.432C43.7962 15.1678 44.0156 15.8867 44.4255 16.4978C44.8353 17.1089 45.4171 17.5847 46.0974 17.8651C46.7777 18.1455 47.5259 18.2179 48.2473 18.073C48.9687 17.9282 49.6309 17.5726 50.1502 17.0514C50.6696 16.5302 51.0227 15.8666 51.1649 15.1447C51.3071 14.4228 51.232 13.6749 50.9491 12.9956C50.6662 12.3164 50.1882 11.7363 49.5756 11.3287C48.9631 10.9211 48.2433 10.7043 47.5075 10.7058C46.5212 10.7078 45.5759 11.1014 44.8797 11.8002C44.1835 12.499 43.7933 13.4456 43.795 14.432ZM15.0828 31.0313C15.1002 39.8229 22.2401 46.9336 31.0298 46.9169C39.8195 46.9002 46.9353 39.7609 46.9185 30.9693C46.9018 22.1777 39.76 15.065 30.9691 15.0824C22.1781 15.0997 15.0661 22.2409 15.0828 31.0313ZM20.6665 31.0201C20.6625 28.9763 21.2646 26.9773 22.3967 25.2757C23.5288 23.5741 25.14 22.2464 27.0267 21.4606C28.9133 20.6747 30.9906 20.466 32.9959 20.8607C35.0012 21.2555 36.8444 22.236 38.2925 23.6783C39.7405 25.1206 40.7283 26.9599 41.131 28.9636C41.5337 30.9673 41.3332 33.0455 40.5548 34.9352C39.7764 36.825 38.4551 38.4415 36.758 39.5803C35.061 40.7191 33.0643 41.3291 31.0205 41.3332C29.6634 41.336 28.3191 41.0715 27.0643 40.5548C25.8095 40.038 24.6687 39.2791 23.7072 38.3214C22.7457 37.3637 21.9823 36.226 21.4606 34.9732C20.9389 33.7205 20.669 32.3772 20.6665 31.0201Z" fill="#6D6D6E"/>
</svg>
