<svg width="17" height="17" viewBox="0 0 17 17" fill="none" xmlns="http://www.w3.org/2000/svg">
<path d="M16.9985 17H13.4787V11.4782C13.4787 10.1614 13.4553 8.46639 11.648 8.46639C9.8148 8.46639 9.53431 9.90103 9.53431 11.3823V16.9996H6.01448V5.64451H9.39351V7.1963H9.44082C9.77898 6.6171 10.2676 6.14063 10.8547 5.81762C11.4418 5.49461 12.1054 5.33717 12.7748 5.36206C16.3422 5.36206 17 7.71271 17 10.7708L16.9985 17ZM2.04296 4.09234C1.63897 4.09241 1.24403 3.97248 0.908084 3.7477C0.57214 3.52293 0.310298 3.20341 0.155632 2.82955C0.00096577 2.45568 -0.0395681 2.04428 0.0391748 1.64734C0.117918 1.25041 0.312398 0.885784 0.598009 0.599571C0.883619 0.313357 1.24754 0.118412 1.64375 0.0393891C2.03996 -0.0396341 2.45066 0.000813351 2.82392 0.155616C3.19719 0.310419 3.51624 0.572623 3.74074 0.909074C3.96525 1.24552 4.08512 1.64111 4.08519 2.0458C4.08524 2.31451 4.03245 2.5806 3.92984 2.82887C3.82724 3.07714 3.67683 3.30273 3.4872 3.49277C3.29756 3.68281 3.07239 3.83357 2.82459 3.93644C2.57679 4.03932 2.3112 4.09229 2.04296 4.09234ZM3.80287 17H0.279385V5.64451H3.80287V17Z" fill="white"/>
</svg>
