<svg width="62" height="62" viewBox="0 0 62 62" fill="none" xmlns="http://www.w3.org/2000/svg">
<path d="M61.9946 62H49.1576V41.8616C49.1576 37.0593 49.0721 30.8774 42.4811 30.8774C35.7952 30.8774 34.7722 36.1096 34.7722 41.5119V61.9987H21.9352V20.5858H34.2587V26.2453H34.4312C35.6645 24.133 37.4467 22.3952 39.5878 21.2172C41.729 20.0392 44.1491 19.465 46.5903 19.5558C59.6011 19.5558 62 28.1287 62 39.2816L61.9946 62ZM7.4508 14.925C5.97743 14.9253 4.53704 14.4879 3.31184 13.6681C2.08663 12.8483 1.13168 11.683 0.567599 10.3195C0.00352222 8.95603 -0.144307 7.45559 0.142873 6.00796C0.430053 4.56032 1.13933 3.23051 2.18097 2.18667C3.22261 1.14283 4.54986 0.431857 5.99486 0.143654C7.43986 -0.144548 8.9377 0.00296634 10.299 0.567541C11.6603 1.13212 12.8239 2.08839 13.6427 3.31545C14.4615 4.5425 14.8987 5.98522 14.8989 7.46117C14.8991 8.44116 14.7066 9.41158 14.3324 10.317C13.9582 11.2225 13.4096 12.0453 12.718 12.7383C12.0264 13.4314 11.2052 13.9813 10.3015 14.3564C9.39771 14.7316 8.42907 14.9248 7.4508 14.925ZM13.8693 62H1.01893V20.5858H13.8693V62Z" fill="#6D6D6E"/>
</svg>
