<svg width="40" height="40" viewBox="0 0 40 40" fill="none" xmlns="http://www.w3.org/2000/svg">
<mask id="mask0_22_167" style="mask-type:alpha" maskUnits="userSpaceOnUse" x="0" y="0" width="40" height="40">
<rect width="40" height="40" rx="20" fill="#D9D9D9"/>
</mask>
<g mask="url(#mask0_22_167)">
</g>
<g clip-path="url(#clip0_22_167)">
<mask id="mask1_22_167" style="mask-type:luminance" maskUnits="userSpaceOnUse" x="3" y="9" width="34" height="21">
<path d="M3.50977 9.82458H36.8431V29.8054H3.50977V9.82458Z" fill="white"/>
</mask>
<g mask="url(#mask1_22_167)">
<path fill-rule="evenodd" clip-rule="evenodd" d="M20.1764 9.82458C15.732 9.82458 12.9542 12.0447 11.8431 16.4849C13.5098 14.2648 15.4542 13.4322 17.6764 13.9873C18.9443 14.3036 19.8505 15.2231 20.8536 16.24C22.4875 17.8971 24.3789 19.815 28.5098 19.815C32.9542 19.815 35.732 17.5949 36.8431 13.1547C35.1764 15.3748 33.232 16.2074 31.0098 15.6523C29.7419 15.336 28.8357 14.4165 27.8326 13.3996C26.1987 11.7425 24.3073 9.82458 20.1764 9.82458ZM11.8431 19.815C7.39865 19.815 4.62088 22.0351 3.50977 26.4753C5.17643 24.2552 7.12088 23.4227 9.3431 23.9777C10.611 24.2947 11.5172 25.2135 12.5203 26.2305C14.1542 27.8875 16.0456 29.8054 20.1764 29.8054C24.6209 29.8054 27.3987 27.5854 28.5098 23.1452C26.8431 25.3653 24.8987 26.1978 22.6764 25.6428C21.4085 25.3264 20.5024 24.4069 19.4993 23.39C17.8653 21.7329 15.974 19.815 11.8431 19.815Z" fill="#38BDF8"/>
</g>
</g>
<defs>
<clipPath id="clip0_22_167">
<rect width="33.3333" height="20.3509" fill="white" transform="translate(3.50879 9.82458)"/>
</clipPath>
</defs>
</svg>
