<svg width="62" height="62" viewBox="0 0 62 62" fill="none" xmlns="http://www.w3.org/2000/svg">
<path fill-rule="evenodd" clip-rule="evenodd" d="M30.9076 0.632568C13.8165 0.632568 0 14.5509 0 31.7699C0 45.5339 8.85271 57.1848 21.1338 61.3084C22.6692 61.6184 23.2317 60.6384 23.2317 59.8141C23.2317 59.0922 23.181 56.6179 23.181 54.0399C14.5833 55.8961 12.7929 50.3281 12.7929 50.3281C11.4112 46.7194 9.3639 45.792 9.3639 45.792C6.54986 43.8845 9.56888 43.8845 9.56888 43.8845C12.6904 44.0908 14.3283 47.0807 14.3283 47.0807C17.0911 51.8231 21.5431 50.4831 23.3341 49.6581C23.5897 47.6475 24.409 46.2557 25.2789 45.4826C18.4216 44.7608 11.2068 42.0802 11.2068 30.1199C11.2068 26.7175 12.4342 23.9338 14.3789 21.7689C14.0721 20.9958 12.9972 17.799 14.6864 13.5203C14.6864 13.5203 17.2961 12.6954 23.1804 16.7165C25.6997 16.0349 28.2978 15.6882 30.9076 15.6853C33.5173 15.6853 36.1776 16.0465 38.6342 16.7165C44.5192 12.6954 47.1289 13.5203 47.1289 13.5203C48.818 17.799 47.7425 20.9958 47.4357 21.7689C49.4317 23.9338 50.6084 26.7175 50.6084 30.1199C50.6084 42.0802 43.3937 44.7089 36.4851 45.4826C37.6112 46.462 38.583 48.3175 38.583 51.2562C38.583 55.4317 38.5324 58.7829 38.5324 59.8135C38.5324 60.6385 39.0954 61.6184 40.6302 61.3091C52.9113 57.1842 61.764 45.5339 61.764 31.7699C61.8146 14.5509 47.9475 0.632568 30.9076 0.632568Z" fill="#6D6D6E"/>
</svg>
