<svg width="102" height="102" viewBox="0 0 102 102" fill="none" xmlns="http://www.w3.org/2000/svg">
<rect width="102" height="102" rx="27" fill="#F1DF1D"/>
<path d="M41.0362 44.7273H50.9155V77.6889C50.9155 80.7358 50.2307 83.3826 48.8612 85.6293C47.507 87.8759 45.6219 89.6071 43.206 90.8228C40.79 92.0385 37.9817 92.6463 34.7809 92.6463C31.9341 92.6463 29.3488 92.1462 27.0252 91.146C24.717 90.1303 22.8858 88.5915 21.5316 86.5295C20.1774 84.4521 19.508 81.8437 19.5234 78.7045H29.4719C29.5027 79.951 29.7566 81.0205 30.2337 81.913C30.7261 82.7901 31.3955 83.4672 32.2418 83.9442C33.1036 84.4059 34.1192 84.6367 35.2887 84.6367C36.5198 84.6367 37.5585 84.3751 38.4048 83.8519C39.2666 83.3133 39.9206 82.5285 40.3668 81.4975C40.8131 80.4665 41.0362 79.197 41.0362 77.6889V44.7273ZM84.8235 58.3228C84.6389 56.4608 83.8464 55.0143 82.446 53.9833C81.0457 52.9523 79.1452 52.4368 76.7447 52.4368C75.1135 52.4368 73.7363 52.6676 72.6129 53.1293C71.4896 53.5755 70.6278 54.1987 70.0277 54.9989C69.4429 55.7991 69.1506 56.707 69.1506 57.7227C69.1198 58.569 69.2968 59.3076 69.6815 59.9386C70.0816 60.5695 70.6278 61.1158 71.3203 61.5774C72.0128 62.0237 72.813 62.4161 73.7209 62.7546C74.6288 63.0778 75.5982 63.3548 76.6293 63.5856L80.8764 64.6012C82.9384 65.0629 84.8312 65.6784 86.5547 66.4478C88.2782 67.2172 89.7708 68.1636 91.0327 69.2869C92.2945 70.4103 93.2717 71.7337 93.9641 73.2571C94.672 74.7805 95.0336 76.5271 95.049 78.4968C95.0336 81.3898 94.295 83.8981 92.8331 86.0217C91.3866 88.1299 89.2938 89.7687 86.5547 90.9382C83.831 92.0923 80.5456 92.6694 76.6985 92.6694C72.8822 92.6694 69.5584 92.0846 66.7269 90.9151C63.9109 89.7456 61.7103 88.0144 60.1254 85.7216C58.5558 83.4134 57.7325 80.5588 57.6555 77.158H67.3271C67.4348 78.743 67.8887 80.0664 68.6889 81.1282C69.5045 82.1746 70.5894 82.9671 71.9435 83.5057C73.3131 84.0289 74.8596 84.2905 76.5831 84.2905C78.2758 84.2905 79.7454 84.0443 80.9918 83.5518C82.2537 83.0594 83.2308 82.3746 83.9233 81.4975C84.6158 80.6204 84.962 79.6125 84.962 78.4737C84.962 77.4119 84.6465 76.5194 84.0156 75.7962C83.4001 75.0729 82.4922 74.4574 81.2919 73.9496C80.107 73.4418 78.6528 72.9801 76.9293 72.5646L71.782 71.272C67.7964 70.3026 64.6495 68.7868 62.3413 66.7248C60.033 64.6628 58.8866 61.8852 58.902 58.392C58.8866 55.5298 59.6483 53.0292 61.1871 50.8903C62.7414 48.7513 64.8726 47.0817 67.581 45.8814C70.2893 44.6811 73.367 44.081 76.8139 44.081C80.3224 44.081 83.3847 44.6811 86.0007 45.8814C88.6321 47.0817 90.6787 48.7513 92.1406 50.8903C93.6025 53.0292 94.3565 55.5067 94.4027 58.3228H84.8235Z" fill="black"/>
</svg>
