<svg width="86" height="45" viewBox="0 0 86 45" fill="none" xmlns="http://www.w3.org/2000/svg">
<path d="M9.69886 35.4134L9.74148 22.9915H11.1903L20.3949 11.2727H32.1989L18.5199 28.0625H15.7713L9.69886 35.4134ZM0.302557 44V0.363635H10.7216V44H0.302557ZM20.6293 44L12.0639 30.4062L18.9247 23.0128L32.6676 44H20.6293ZM46.3466 25.3352V44H35.9276V0.363635H46.0057V17.2812H46.3679C47.1065 15.2642 48.3139 13.6875 49.9901 12.5511C51.6804 11.4148 53.7472 10.8466 56.1903 10.8466C58.4915 10.8466 60.4943 11.358 62.1989 12.3807C63.9034 13.3892 65.2244 14.8168 66.1619 16.6634C67.1136 18.5099 67.5824 20.669 67.5682 23.1406V44H57.1491V25.1861C57.1634 23.3679 56.7088 21.9474 55.7855 20.9247C54.8622 19.902 53.5625 19.3906 51.8864 19.3906C50.7926 19.3906 49.8267 19.6321 48.9886 20.1151C48.1648 20.5838 47.5185 21.2585 47.0497 22.1392C46.5952 23.0199 46.3608 24.0852 46.3466 25.3352Z" fill="white"/>
<path d="M79.9315 44.6179C78.3974 44.6179 77.0835 44.0781 75.9897 42.9986C74.9102 41.919 74.3775 40.6122 74.3917 39.0781C74.3775 37.5724 74.9102 36.2869 75.9897 35.2216C77.0835 34.142 78.3974 33.6023 79.9315 33.6023C81.3803 33.6023 82.6587 34.142 83.7667 35.2216C84.8888 36.2869 85.457 37.5724 85.4712 39.0781C85.457 40.1009 85.1871 41.0312 84.6616 41.8693C84.1502 42.7074 83.4755 43.375 82.6374 43.8722C81.8136 44.3693 80.9116 44.6179 79.9315 44.6179Z" fill="#CBACF9"/>
</svg>
