<svg width="114" height="114" viewBox="0 0 114 114" fill="none" xmlns="http://www.w3.org/2000/svg">
<mask id="mask0_11_9" style="mask-type:alpha" maskUnits="userSpaceOnUse" x="0" y="0" width="114" height="114">
<rect width="114" height="114" rx="27" fill="#D9D9D9"/>
</mask>
<g mask="url(#mask0_11_9)">
</g>
<g clip-path="url(#clip0_11_9)">
<mask id="mask1_11_9" style="mask-type:luminance" maskUnits="userSpaceOnUse" x="10" y="28" width="96" height="57">
<path d="M10.0039 28H105.004V84.9455H10.0039V28Z" fill="white"/>
</mask>
<g mask="url(#mask1_11_9)">
<path fill-rule="evenodd" clip-rule="evenodd" d="M57.5039 28C44.8372 28 36.9206 34.3273 33.7539 46.9818C38.5039 40.6545 44.0456 38.2818 50.3789 39.8636C53.9924 40.7653 56.575 43.3858 59.4338 46.2841C64.0906 51.0067 69.4809 56.4727 81.2539 56.4727C93.9206 56.4727 101.837 50.1455 105.004 37.4909C100.254 43.8182 94.7122 46.1909 88.3789 44.6091C84.7654 43.7075 82.1828 41.0869 79.324 38.1887C74.6672 33.4661 69.2769 28 57.5039 28ZM33.7539 56.4727C21.0872 56.4727 13.1706 62.8 10.0039 75.4545C14.7539 69.1273 20.2956 66.7545 26.6289 68.3364C30.2424 69.2398 32.825 71.8585 35.6838 74.7568C40.3406 79.4794 45.7309 84.9455 57.5039 84.9455C70.1706 84.9455 78.0872 78.6182 81.2539 65.9636C76.5039 72.2909 70.9622 74.6636 64.6289 73.0818C61.0154 72.1802 58.4328 69.5596 55.574 66.6614C50.9172 61.9388 45.5269 56.4727 33.7539 56.4727Z" fill="#38BDF8"/>
</g>
</g>
<defs>
<clipPath id="clip0_11_9">
<rect width="95" height="58" fill="white" transform="translate(10 28)"/>
</clipPath>
</defs>
</svg>
